<?xml version="1.0" encoding="UTF-8" standalone="no"?>
<!DOCTYPE svg PUBLIC "-//W3C//DTD SVG 1.1//EN" "http://www.w3.org/Graphics/SVG/1.1/DTD/svg11.dtd">
<svg width="100%" height="100%" viewBox="0 0 1024 1024" version="1.1" xmlns="http://www.w3.org/2000/svg" xmlns:xlink="http://www.w3.org/1999/xlink" xml:space="preserve" xmlns:serif="http://www.serif.com/" style="fill-rule:evenodd;clip-rule:evenodd;stroke-linejoin:round;stroke-miterlimit:2;">
    <g transform="matrix(1.07676,0,0,1.07563,-45.224,-44.1008)">
        <path d="M993,279C993,147.644 886.468,41 755.25,41L279.75,41C148.532,41 42,147.644 42,279L42,755C42,886.356 148.532,993 279.75,993L755.25,993C886.468,993 993,886.356 993,755L993,279Z" style="fill:rgb(16,24,34);"/>
    </g>
    <g transform="matrix(4.418,0,0,4.41799,-372.006,-1249.42)">
        <g transform="matrix(1.13713,0,0,1.13713,-40.9526,85.5631)">
            <path d="M201.497,229.496L201.497,321.08L220.073,321.08L220.073,284.216L244.409,284.216C249.689,284.216 254.153,285.992 257.801,289.544C261.449,293.096 263.273,297.464 263.273,302.648L263.417,339.656L281.417,339.512L281.417,305.528C281.417,298.712 279.641,292.568 276.089,287.096C272.537,281.624 267.689,277.688 261.545,275.288C267.689,272.792 272.537,268.784 276.089,263.264C279.641,257.744 281.417,251.336 281.417,244.04L281.417,229.496L263.273,229.496L263.417,246.92C263.417,252.392 261.593,257 257.945,260.744C254.297,264.488 249.833,266.36 244.553,266.36L220.217,266.36L220.217,229.496L201.497,229.496Z" style="fill:rgb(244,231,205);fill-rule:nonzero;"/>
        </g>
        <g transform="matrix(1.13713,0,0,1.13713,-132.631,85.5631)">
            <path d="M274.505,321.08L274.505,303.368L246.857,303.368C239.081,303.368 232.553,300.68 227.273,295.304C221.993,289.928 219.353,283.256 219.353,275.288C219.353,267.224 222.185,260.552 227.849,255.272C233.513,249.992 240.905,247.352 250.025,247.352L274.505,247.352L274.505,229.496L249.737,229.496C236.297,229.496 224.897,233.936 215.537,242.816C206.177,251.696 201.497,262.52 201.497,275.288C201.497,288.152 206.201,299 215.609,307.832C225.017,316.664 236.537,321.08 250.169,321.08L274.505,321.08Z" style="fill:rgb(203,103,0);fill-rule:nonzero;"/>
        </g>
    </g>
</svg>
